<?xml version="1.0" encoding="UTF-8" standalone="no"?>
<!-- Created with Inkscape (http://www.inkscape.org/) -->

<svg
   xmlns:dc="http://purl.org/dc/elements/1.1/"
   xmlns:cc="http://creativecommons.org/ns#"
   xmlns:rdf="http://www.w3.org/1999/02/22-rdf-syntax-ns#"
   xmlns:svg="http://www.w3.org/2000/svg"
   xmlns="http://www.w3.org/2000/svg"
   xmlns:sodipodi="http://sodipodi.sourceforge.net/DTD/sodipodi-0.dtd"
   xmlns:inkscape="http://www.inkscape.org/namespaces/inkscape"
   version="1.1"
   id="svg29"
   xml:space="preserve"
   width="1511.8134"
   height="1511.8134"
   viewBox="0 0 1511.8134 1511.8134"
   sodipodi:docname="COLOURBOX11166066.eps"
   inkscape:version="0.92.3 (2405546, 2018-03-11)"><metadata
     id="metadata35"><rdf:RDF><cc:Work
         rdf:about=""><dc:format>image/svg+xml</dc:format><dc:type
           rdf:resource="http://purl.org/dc/dcmitype/StillImage" /><dc:title></dc:title></cc:Work></rdf:RDF></metadata><defs
     id="defs33" /><sodipodi:namedview
     pagecolor="#ffffff"
     bordercolor="#666666"
     borderopacity="1"
     objecttolerance="10"
     gridtolerance="10"
     guidetolerance="10"
     inkscape:pageopacity="0"
     inkscape:pageshadow="2"
     inkscape:window-width="640"
     inkscape:window-height="480"
     id="namedview31"
     showgrid="false"
     inkscape:zoom="0.37438484"
     inkscape:cx="755.90668"
     inkscape:cy="755.90668"
     inkscape:window-x="0"
     inkscape:window-y="0"
     inkscape:window-maximized="1"
     inkscape:current-layer="g37" /><g
     id="g37"
     inkscape:groupmode="layer"
     inkscape:label="ink_ext_XXXXXX"
     transform="matrix(1.3333333,0,0,-1.3333333,0,1511.8133)"><g
       id="g39"
       transform="scale(0.1)"><path
         d="M 11338.6,0 H 0 V 11338.6 H 11338.6 V 0"
         style="fill:#ffffff;fill-opacity:1;fill-rule:evenodd;stroke:none"
         id="path41"
         inkscape:connector-curvature="0" /><path
         d="m 4897.67,2034.28 c 299.38,1135.15 -320.67,1247.94 -946.33,2029.57 -197.71,222.09 -455.95,655.88 -659.35,728.59 -279.97,100.11 -531.95,214.85 -750.65,401.08 l 52.05,71.82 c 621.22,-353.82 847.72,-236.11 590.82,476.67 l 94.88,34.39 c 172.96,-519.13 315.67,-777.66 611.8,-1098.27 467.94,-506.63 1630.92,687.4 916.22,1087.26 -718.76,402.16 -1034.68,920.7 -1400.27,1651.57 l 143.43,83.18 c 286.19,-618.72 679.14,-1091.4 1308.29,-1400.7 328.43,-161.46 367.92,-48.76 263.54,382.29 -140.25,579.21 -408.19,1157.45 -696.98,1673.82 l 162.89,90.58 c 138.32,-207.08 278.63,-424.94 394.46,-627.97 135.58,-237.64 150.96,-240.59 401.34,-76.23 386.62,253.82 518.42,545.54 645.62,1038.25 l 119.12,-39.38 c -109.14,-554.89 -253.13,-958.42 -713.61,-1258.87 -241.36,-157.46 -178.93,-206.42 -85.74,-486.73 281.62,-847.06 374.14,-1536.94 -346.25,-2261.57 -431.79,-434.29 -22.25,-816.41 350.8,-823.4 396.83,-7.43 338.45,181.02 300.84,415.82 -45.59,284.63 -54.39,421.43 -24.48,738.76 l 95.08,3.34 c 11.31,-311.46 51.24,-534.42 127.33,-791.87 66.86,-226.16 223.38,-147.96 363.19,-56.4 321.48,210.51 333.68,317.76 162,681.6 -355.64,753.75 -342.46,1366.31 -139.04,2221.57 l 115.77,-26.96 c -55.89,-238.88 -67.63,-517.3 -56.09,-772.66 28.23,-623.93 473.03,-59.23 566.85,336.43 l 75.33,-27.07 c -28.65,-192.01 -150.9,-520.86 -407.12,-780.4 -252.09,-255.34 34.13,-664.82 199.02,-872.88 119.52,-150.82 257.06,-164.18 426.31,65.72 630.95,857.02 404.64,2031.25 -313.12,2773.93 l 81.84,84.61 c 178.93,-174.64 342.83,-358.15 500.44,-562.03 89.96,-116.36 166.24,-111.08 268.51,25.31 l 265.21,327.24 94.17,-74.95 -314.4,-513.64 c -68.26,-111.52 -79.85,-158.51 -32.03,-279.4 141.75,-358.47 123.9,-648.34 83.25,-1019.51 -18.04,-164.78 -21.47,-228.27 166.45,-182.7 463.24,112.3 659.49,521.39 684.66,1008.7 l 96.47,-4.92 c -24.14,-466.92 -113.69,-737.33 -302.85,-931.2 -328.52,-336.69 -625.34,-145.21 -853.47,-572.35 -183.34,-343.26 -431.66,-623.46 -720.26,-879.6 -612.05,-543.22 592.4,-536.35 897.09,-486.2 l 13.25,-115.94 c -365.79,-88.46 -767.2,-134.68 -1160.83,-30.79 -515.61,136.07 -447.94,-948.46 -317.98,-1377.51 H 4897.67 v 0"
         style="fill:#000000;fill-opacity:1;fill-rule:evenodd;stroke:none"
         id="path43"
         inkscape:connector-curvature="0" /><path
         d="M 5670.25,9650 C 7868.1,9650 9650.49,7867.61 9650.49,5669.76 9650.49,3471.91 7868.1,1689.51 5670.25,1689.51 3472.39,1689.51 1690,3471.91 1690,5669.76 1690,7867.61 3472.39,9650 5670.25,9650 Z m 0,-462.31 c 1942.56,0 3517.93,-1575.37 3517.93,-3517.93 0,-1942.58 -1575.37,-3517.94 -3517.93,-3517.94 -1942.57,0 -3517.94,1575.36 -3517.94,3517.94 0,1942.56 1575.37,3517.93 3517.94,3517.93 v 0"
         style="fill:#000000;fill-opacity:1;fill-rule:evenodd;stroke:none"
         id="path45"
         inkscape:connector-curvature="0" /></g></g></svg>